# xmcd
#
# Track frame offsets:
#	150
#	21818
#	45430
#	64040
#	87045
#	106757
#	123115
#	137915
#	156653
#	176323
#	198548
#	221368
#	241420
#	262028
#	275465
#
# Disc length: 3885 seconds
#
# Revision: 5
# Processed by: cddbd v1.5.2PL0 Copyright (c) Steve Scherf et al.
# Submitted via: EasyCDDAExtractor 15.3.0.1
#
DISCID=cd0f2b0f
DTITLE=Mariah Carey - Charmbracelet
DYEAR=2002
DGENRE=R&B/Pop
TTITLE0=Through The Rain
TTITLE1=Boy (I Need You) (Featuring Cam'Ron)
TTITLE2=The One
TTITLE3=Yours
TTITLE4=You Got Me (Featuring Jay-Z And Freeway)
TTITLE5=I Only Wanted
TTITLE6=Clown
TTITLE7=My Saving Grace
TTITLE8=You Had Your Chance
TTITLE9=Lullaby
TTITLE10=Irresistible (West Side Connection)
TTITLE11=Subtle Invitation
TTITLE12=Bringin' On The Heartbreak
TTITLE13=Sunflowers For Alfred Roy
TTITLE14=Through The Rain (Remix) (Featuring Kelly Price And Joe)
EXTD=
EXTT0=
EXTT1=
EXTT2=
EXTT3=
EXTT4=
EXTT5=
EXTT6=
EXTT7=
EXTT8=
EXTT9=
EXTT10=
EXTT11=
EXTT12=
EXTT13=
EXTT14=
PLAYORDER=
